<svg width="80" height="80" viewBox="0 0 80 80" fill="none" xmlns="http://www.w3.org/2000/svg">
<rect width="80" height="80" rx="4" fill="white"/>
<g clip-path="url(#clip0_276_4845)">
<path d="M73 33.3395V26.6728C72.9987 25.5038 72.6592 24.3555 72.0156 23.3434C71.3721 22.3312 70.447 21.4907 69.3333 20.9062L43.6667 7.57285C42.5519 6.98773 41.2873 6.67969 40 6.67969C38.7127 6.67969 37.4481 6.98773 36.3333 7.57285L10.6667 20.9062C9.55296 21.4907 8.62793 22.3312 7.98436 23.3434C7.34079 24.3555 7.00132 25.5038 7 26.6728V53.3395C7.00132 54.5086 7.34079 55.6568 7.98436 56.669C8.62793 57.6811 9.55296 58.5216 10.6667 59.1062L36.3333 72.4395C37.4481 73.0246 38.7127 73.3327 40 73.3327C41.2873 73.3327 42.5519 73.0246 43.6667 72.4395L51 68.6395M56.5 31.3395L23.6833 14.1395" stroke="black" stroke-width="3.33333" stroke-linecap="round" stroke-linejoin="round"/>
<path d="M8.06055 23.3418L39.9972 40.0085L71.9339 23.3418M39.9972 73.3418V40.0085" stroke="black" stroke-width="3.33333" stroke-linecap="round" stroke-linejoin="round"/>
<path fill-rule="evenodd" clip-rule="evenodd" d="M75.8017 58.7325C73.171 63.6331 68.2255 67.4787 62.5053 69.1004C56.7831 67.4787 51.8377 63.6331 49.2069 58.7325C46.4381 53.5746 46.8983 47.6504 48.8483 41.8004C51.5025 41.6272 56.6153 40.6833 62.5053 37.9004C68.3934 40.6833 73.494 41.6272 76.1482 41.8004C78.0982 47.6504 78.0982 53.5004 75.8017 58.7325ZM70.7022 47.2465C71.4637 48.0081 71.4637 49.2427 70.7022 50.0042L61.9272 58.7792C61.1657 59.5408 59.931 59.5408 59.1695 58.7792L54.2945 53.9042C53.533 53.1427 53.533 51.9081 54.2945 51.1465C55.056 50.385 56.2907 50.385 57.0522 51.1465L60.5483 54.6427L67.9445 47.2465C68.706 46.485 69.9407 46.485 70.7022 47.2465Z" fill="#6BCE6A"/>
</g>
<defs>
<clipPath id="clip0_276_4845">
<rect width="80" height="80" fill="white"/>
</clipPath>
</defs>
</svg>
