<svg width="25" height="25" viewBox="0 0 25 25" fill="none" xmlns="http://www.w3.org/2000/svg">
<path d="M7.90404 21.1933C9.26014 23.5414 11.787 25.0001 14.4986 25.0001C18.6976 25.0001 22.1138 21.5839 22.1138 17.3849V11.4225C22.1138 10.353 21.2437 9.48286 20.1742 9.48286C19.7483 9.48286 19.354 9.6208 19.0338 9.85439C18.816 9.02158 18.0571 8.40527 17.1569 8.40527C16.7066 8.40527 16.2915 8.55957 15.962 8.81807C15.69 8.075 14.9758 7.54321 14.1397 7.54321C13.7413 7.54321 13.3705 7.66401 13.0621 7.8708V4.09492C13.0621 3.02539 12.192 2.15527 11.1224 2.15527C10.0529 2.15527 9.1828 3.02539 9.1828 4.09492V14.3782C9.1828 14.5104 9.10536 14.6319 8.98544 14.6876C8.82386 14.7628 8.63504 14.7031 8.54593 14.5489L7.25257 12.3087C6.8784 11.6607 6.2743 11.1971 5.55145 11.0034C4.8285 10.8097 4.07357 10.9091 3.42552 11.2833C3.17626 11.4271 2.99789 11.6596 2.92337 11.9376C2.84891 12.2157 2.88719 12.5062 3.03114 12.7554L7.90404 21.1933ZM3.75609 12.1607C3.76468 12.1286 3.78919 12.0687 3.85648 12.0299C4.15536 11.8573 4.487 11.7692 4.82313 11.7692C4.99154 11.7692 5.16117 11.7914 5.32826 11.8361C5.8287 11.9702 6.24691 12.2912 6.50599 12.7398L7.79935 14.98C8.11332 15.5238 8.77962 15.7341 9.34901 15.4694C9.77171 15.2728 10.0449 14.8445 10.0449 14.3783V4.09492C10.0449 3.50073 10.5283 3.01733 11.1224 3.01733C11.7166 3.01733 12.2 3.50073 12.2 4.09492V12.069C12.2 12.3071 12.393 12.5001 12.6311 12.5001C12.8692 12.5001 13.0621 12.3071 13.0621 12.069V9.48286C13.0621 8.88867 13.5455 8.40527 14.1397 8.40527C14.7339 8.40527 15.2173 8.88867 15.2173 9.48286V12.069C15.2173 12.3071 15.4103 12.5001 15.6484 12.5001C15.8864 12.5001 16.0794 12.3071 16.0794 12.069V10.3449C16.0794 9.75073 16.5628 9.26733 17.157 9.26733C17.7512 9.26733 18.2346 9.75073 18.2346 10.3449V12.2846C18.2346 12.5226 18.4276 12.7156 18.6657 12.7156C18.9037 12.7156 19.0967 12.5227 19.0967 12.2846V11.4225C19.0967 10.8283 19.5801 10.3449 20.1743 10.3449C20.7685 10.3449 21.2519 10.8283 21.2519 11.4225V17.3849C21.2519 21.1086 18.2224 24.138 14.4987 24.138C12.0941 24.138 9.85331 22.8445 8.65077 20.7622L3.77757 12.3243C3.73876 12.257 3.74745 12.1929 3.75609 12.1607Z" fill="#282828"/>
<path d="M8.18145 6.32222C8.38662 6.20147 8.45498 5.93726 8.33423 5.73208C8.04336 5.23804 7.88965 4.67188 7.88965 4.09482C7.88965 2.31226 9.33984 0.862061 11.1224 0.862061C12.905 0.862061 14.3552 2.31226 14.3552 4.09482C14.3552 4.67402 14.2003 5.24214 13.9073 5.73765C13.7861 5.94258 13.8541 6.20693 14.0589 6.32808C14.1278 6.3688 14.2034 6.38813 14.2779 6.38813C14.4253 6.38813 14.5689 6.3125 14.6494 6.17642C15.0209 5.54814 15.2172 4.82832 15.2172 4.09482C15.2172 1.83691 13.3803 0 11.1224 0C8.86455 0 7.02759 1.83691 7.02759 4.09482C7.02759 4.82554 7.22251 5.54292 7.59136 6.16943C7.71206 6.37451 7.97617 6.44307 8.18145 6.32222Z" fill="#282828"/>
<path d="M16.5104 4.52589H19.7802L18.4686 5.83751C18.3003 6.00582 18.3003 6.27872 18.4686 6.44708C18.5528 6.53126 18.6631 6.57335 18.7734 6.57335C18.8837 6.57335 18.994 6.53126 19.0782 6.44708L21.1256 4.39967C21.2939 4.23136 21.2939 3.95846 21.1256 3.7901L19.0782 1.74269C18.9098 1.57438 18.637 1.57438 18.4686 1.74269C18.3002 1.911 18.3002 2.1839 18.4686 2.35226L19.7802 3.66388H16.5104C16.2724 3.66388 16.0793 3.85685 16.0793 4.09493C16.0794 4.33287 16.2724 4.52589 16.5104 4.52589Z" fill="#282828"/>
</svg>
