<svg width="17" height="17" viewBox="0 0 17 17" fill="none" xmlns="http://www.w3.org/2000/svg">
<path d="M15.0075 7.08824C14.7774 6.9545 14.5707 6.78415 14.3955 6.58391C14.4132 6.30512 14.4796 6.03158 14.5917 5.7757C14.7978 5.19416 15.0308 4.53541 14.6568 4.02328C14.2828 3.51116 13.5766 3.52745 12.9568 3.54162C12.683 3.56979 12.4063 3.55111 12.1387 3.48637C11.9961 3.25439 11.8943 2.99973 11.8377 2.73341C11.662 2.13487 11.4616 1.45841 10.846 1.25582C10.2524 1.06457 9.70276 1.48532 9.21684 1.85507C9.00717 2.04655 8.76422 2.19803 8.50001 2.30203C8.23303 2.19888 7.98738 2.04736 7.77538 1.85507C7.29088 1.48745 6.74334 1.06245 6.14693 1.25653C5.5328 1.45628 5.33234 2.13487 5.15526 2.73341C5.09869 2.99887 4.99788 3.25292 4.85705 3.48495C4.58896 3.54952 4.31194 3.56867 4.03751 3.54162C3.41559 3.52462 2.71505 3.5062 2.33751 4.02328C1.95997 4.54036 2.19584 5.19416 2.40268 5.77499C2.51632 6.03049 2.58371 6.30414 2.60172 6.5832C2.42682 6.78371 2.22033 6.9543 1.99043 7.08824C1.47193 7.44241 0.883301 7.84545 0.883301 8.49995C0.883301 9.15445 1.47193 9.55607 1.99043 9.91166C2.22028 10.0454 2.42676 10.2157 2.60172 10.416C2.58561 10.6949 2.52013 10.9688 2.40834 11.2249C2.20293 11.8057 1.97059 12.4645 2.34388 12.9766C2.71718 13.4887 3.42126 13.4724 4.04388 13.4583C4.31799 13.4301 4.59489 13.4488 4.86272 13.5135C5.00465 13.7457 5.1062 14.0003 5.16305 14.2665C5.33872 14.865 5.53918 15.5415 6.15472 15.7441C6.2534 15.7757 6.35638 15.792 6.46001 15.7922C6.95811 15.7208 7.42106 15.4942 7.78318 15.1448C7.99285 14.9533 8.2358 14.8019 8.50001 14.6979C8.76698 14.801 9.01264 14.9525 9.22463 15.1448C9.70984 15.5153 10.2595 15.9382 10.8538 15.7434C11.4679 15.5436 11.6684 14.865 11.8455 14.2672C11.9022 14.0012 12.0038 13.7469 12.1458 13.5149C12.4129 13.4499 12.689 13.4308 12.9625 13.4583C13.5844 13.4732 14.285 13.4937 14.6625 12.9766C15.0401 12.4595 14.8042 11.8057 14.5973 11.2242C14.4845 10.9689 14.4171 10.6959 14.3983 10.4174C14.5733 10.2167 14.78 10.0461 15.0103 9.91236C15.5288 9.5582 16.1174 9.15445 16.1174 8.49995C16.1174 7.84545 15.5267 7.44311 15.0075 7.08824Z" fill="#49ADF4"/>
<path d="M7.79172 10.4479C7.72195 10.448 7.65285 10.4343 7.58841 10.4076C7.52397 10.3808 7.46547 10.3415 7.4163 10.292L5.99964 8.87538C5.9058 8.77467 5.85471 8.64147 5.85714 8.50384C5.85957 8.36621 5.91532 8.2349 6.01266 8.13756C6.10999 8.04023 6.2413 7.98447 6.37893 7.98205C6.51656 7.97962 6.64976 8.03071 6.75047 8.12455L7.8413 9.21538L10.3063 7.36663C10.419 7.28209 10.5607 7.24579 10.7002 7.26572C10.8397 7.28564 10.9655 7.36016 11.0501 7.47288C11.1346 7.5856 11.1709 7.72728 11.151 7.86676C11.131 8.00624 11.0565 8.13209 10.9438 8.21663L8.11047 10.3416C8.01849 10.4106 7.90666 10.4478 7.79172 10.4479Z" fill="white"/>
</svg>
