<svg width="66" height="70" viewBox="0 0 66 70" fill="none" xmlns="http://www.w3.org/2000/svg">
<path d="M33.0001 68.8337C50.618 68.8337 64.9001 53.686 64.9001 35.0003C64.9001 16.3147 50.618 1.16699 33.0001 1.16699C15.3822 1.16699 1.1001 16.3147 1.1001 35.0003C1.1001 53.686 15.3822 68.8337 33.0001 68.8337Z" fill="#F7F7F6"/>
<path d="M26.6883 49.0819L19.2083 41.3329C19.0465 41.1661 18.9179 40.9666 18.8301 40.7461C18.7423 40.5257 18.697 40.2888 18.697 40.0495C18.697 39.8102 18.7423 39.5734 18.8301 39.3529C18.9179 39.1325 19.0465 38.933 19.2083 38.7662L21.6888 36.1995C22.0215 35.8577 22.4664 35.6665 22.9296 35.6665C23.3928 35.6665 23.8378 35.8577 24.1704 36.1995L28.6232 40.816L41.1115 20.6794C41.3692 20.273 41.7657 19.9889 42.2174 19.887C42.669 19.7851 43.1402 19.8735 43.5315 20.1334L46.4839 22.1004C46.6768 22.2261 46.8438 22.3917 46.9752 22.5872C47.1066 22.7827 47.1996 23.0042 47.2487 23.2386C47.2979 23.473 47.3021 23.7154 47.2613 23.9516C47.2204 24.1877 47.1352 24.4128 47.0108 24.6134L32.2235 48.4647C31.9272 48.9316 31.538 49.3238 31.0833 49.6139C30.6286 49.904 30.1195 50.0848 29.5918 50.1437C29.064 50.2025 28.5306 50.1379 28.0289 49.9545C27.5273 49.771 27.0697 49.4732 26.6883 49.0819Z" fill="#001598"/>
</svg>
