<svg width="20" height="19" viewBox="0 0 20 19" fill="none" xmlns="http://www.w3.org/2000/svg">
<g clip-path="url(#clip0_2003_575)">
<path d="M10.4538 9.49981L19.003 0.950549C19.0547 0.898844 19.0958 0.837461 19.1237 0.769904C19.1517 0.702348 19.1661 0.629942 19.1661 0.556819C19.1661 0.483696 19.1517 0.41129 19.1237 0.343734C19.0958 0.276177 19.0547 0.214794 19.003 0.163089C18.9513 0.111383 18.8899 0.0703681 18.8224 0.0423853C18.7548 0.0144026 18.6824 0 18.6093 0C18.5362 0 18.4638 0.0144026 18.3962 0.0423853C18.3287 0.0703681 18.2673 0.111383 18.2156 0.163089L9.66631 8.71235L1.11705 0.163089C1.06535 0.111383 1.00396 0.0703681 0.936408 0.0423853C0.868852 0.0144026 0.796445 0 0.723323 0C0.575645 0 0.434016 0.0586647 0.329592 0.163089C0.225169 0.267512 0.166504 0.409141 0.166504 0.556819C0.166504 0.704497 0.225169 0.846126 0.329592 0.950549L8.87885 9.49981L0.329592 18.0491C0.277887 18.1008 0.236872 18.1622 0.208889 18.2297C0.180906 18.2973 0.166504 18.3697 0.166504 18.4428C0.166504 18.5159 0.180906 18.5883 0.208889 18.6559C0.236872 18.7234 0.277887 18.7848 0.329592 18.8365C0.381298 18.8882 0.442681 18.9292 0.510237 18.9572C0.577794 18.9852 0.6502 18.9996 0.723323 18.9996C0.796445 18.9996 0.868852 18.9852 0.936408 18.9572C1.00396 18.9292 1.06535 18.8882 1.11705 18.8365L9.66631 10.2873L18.2156 18.8365C18.2673 18.8882 18.3287 18.9292 18.3962 18.9572C18.4638 18.9852 18.5362 18.9996 18.6093 18.9996C18.6824 18.9996 18.7548 18.9852 18.8224 18.9572C18.8899 18.9292 18.9513 18.8882 19.003 18.8365C19.0547 18.7848 19.0958 18.7234 19.1237 18.6559C19.1517 18.5883 19.1661 18.5159 19.1661 18.4428C19.1661 18.3697 19.1517 18.2973 19.1237 18.2297C19.0958 18.1622 19.0547 18.1008 19.003 18.0491L10.4538 9.49981Z" fill="#FF0000"/>
</g>
<defs>
<clipPath id="clip0_2003_575">
<rect width="19" height="19" fill="white" transform="translate(0.16626)"/>
</clipPath>
</defs>
</svg>
