<svg width="137" height="26" viewBox="0 0 137 26" fill="none" xmlns="http://www.w3.org/2000/svg">
<path d="M12.9763 0L15.8897 8.96641H25.3175L17.6902 14.508L20.6036 23.4744L12.9763 17.9328L5.34903 23.4744L8.26239 14.508L0.635106 8.96641H10.0629L12.9763 0Z" fill="#F1AF61"/>
<path d="M40.551 0L43.4644 8.96641H52.8922L45.2649 14.508L48.1783 23.4744L40.551 17.9328L32.9237 23.4744L35.8371 14.508L28.2098 8.96641H37.6377L40.551 0Z" fill="#F1AF61"/>
<path d="M68.1255 0L71.0388 8.96641H80.4667L72.8394 14.508L75.7528 23.4744L68.1255 17.9328L60.4982 23.4744L63.4116 14.508L55.7843 8.96641H65.2121L68.1255 0Z" fill="#F1AF61"/>
<path d="M95.7002 0L98.6135 8.96641H108.041L100.414 14.508L103.327 23.4744L95.7002 17.9328L88.0729 23.4744L90.9863 14.508L83.359 8.96641H92.7868L95.7002 0Z" fill="#F1AF61"/>
<path d="M123.275 0L126.188 8.96641H135.616L127.989 14.508L130.902 23.4744L123.275 17.9328L115.648 23.4744L118.561 14.508L110.934 8.96641H120.362L123.275 0Z" fill="#F1AF61"/>
</svg>
