<svg width="73" height="14" viewBox="0 0 73 14" fill="none" xmlns="http://www.w3.org/2000/svg">
<path d="M6.95238 0.0478516L8.51329 4.85183H13.5645L9.47798 7.82085L11.0389 12.6248L6.95238 9.65581L2.86587 12.6248L4.42678 7.82085L0.340274 4.85183H5.39147L6.95238 0.0478516Z" fill="#F1AF61"/>
<path d="M21.7262 0.0478516L23.2871 4.85183H28.3383L24.2518 7.82085L25.8127 12.6248L21.7262 9.65581L17.6397 12.6248L19.2006 7.82085L15.1141 4.85183H20.1653L21.7262 0.0478516Z" fill="#F1AF61"/>
<path d="M36.5 0.0478516L38.0609 4.85183H43.1121L39.0256 7.82085L40.5865 12.6248L36.5 9.65581L32.4135 12.6248L33.9744 7.82085L29.8879 4.85183H34.9391L36.5 0.0478516Z" fill="#F1AF61"/>
<path d="M51.2738 0.0478516L52.8347 4.85183H57.8859L53.7994 7.82085L55.3603 12.6248L51.2738 9.65581L47.1873 12.6248L48.7482 7.82085L44.6617 4.85183H49.7129L51.2738 0.0478516Z" fill="#F1AF61"/>
<path d="M66.0476 0.0478516L67.6085 4.85183H72.6597L68.5732 7.82085L70.1341 12.6248L66.0476 9.65581L61.9611 12.6248L63.522 7.82085L59.4355 4.85183H64.4867L66.0476 0.0478516Z" fill="#F1AF61"/>
</svg>
