<svg width="23" height="23" viewBox="0 0 23 23" fill="none" xmlns="http://www.w3.org/2000/svg">
<path d="M20.3042 9.59005C19.993 9.40911 19.7133 9.17864 19.4762 8.90772C19.5002 8.53053 19.5901 8.16045 19.7417 7.81426C20.0206 7.02747 20.3359 6.13622 19.8299 5.44334C19.3239 4.75047 18.3684 4.77251 17.5299 4.79168C17.1593 4.8298 16.785 4.80452 16.423 4.71693C16.2301 4.40308 16.0923 4.05854 16.0157 3.69822C15.778 2.88843 15.5068 1.97322 14.674 1.69913C13.8709 1.44038 13.1273 2.00963 12.4699 2.50988C12.1862 2.76894 11.8575 2.97389 11.5 3.11459C11.1388 2.97503 10.8065 2.77003 10.5197 2.50988C9.86415 2.01251 9.12336 1.43751 8.31644 1.70009C7.48557 1.97034 7.21436 2.88843 6.97478 3.69822C6.89824 4.05737 6.76185 4.40109 6.57132 4.71501C6.20861 4.80237 5.83381 4.82828 5.46253 4.79168C4.62111 4.76868 3.67332 4.74376 3.16253 5.44334C2.65173 6.14293 2.97086 7.02747 3.25069 7.8133C3.40445 8.15898 3.49563 8.52921 3.51999 8.90676C3.28335 9.17804 3.00399 9.40884 2.69294 9.59005C1.99144 10.0692 1.19507 10.6145 1.19507 11.5C1.19507 12.3855 1.99144 12.9289 2.69294 13.41C3.00392 13.5909 3.28328 13.8214 3.51999 14.0923C3.49819 14.4697 3.40961 14.8403 3.25836 15.1867C2.98044 15.9726 2.66611 16.8638 3.17115 17.5567C3.67619 18.2496 4.62878 18.2275 5.47115 18.2083C5.84199 18.1702 6.21663 18.1955 6.57898 18.2831C6.77102 18.5973 6.90841 18.9417 6.98532 19.3018C7.22298 20.1116 7.49419 21.0268 8.32699 21.3009C8.4605 21.3437 8.59982 21.3657 8.74003 21.3661C9.41393 21.2693 10.0403 20.9629 10.5302 20.4901C10.8139 20.2311 11.1426 20.0261 11.5 19.8854C11.8612 20.025 12.1936 20.23 12.4804 20.4901C13.1369 20.9913 13.8805 21.5635 14.6846 21.2999C15.5154 21.0297 15.7867 20.1116 16.0262 19.3028C16.103 18.9429 16.2404 18.5988 16.4326 18.285C16.7939 18.197 17.1675 18.1711 17.5375 18.2083C18.3789 18.2285 19.3267 18.2563 19.8375 17.5567C20.3483 16.8571 20.0292 15.9726 19.7494 15.1858C19.5967 14.8404 19.5055 14.471 19.4801 14.0942C19.7168 13.8227 19.9965 13.5919 20.3081 13.4109C21.0096 12.9318 21.8059 12.3855 21.8059 11.5C21.8059 10.6145 21.0067 10.0702 20.3042 9.59005Z" fill="#E8FCFF"/>
<path d="M10.5417 14.1355C10.4473 14.1357 10.3538 14.1171 10.2666 14.0809C10.1794 14.0448 10.1003 13.9916 10.0338 13.9247L8.1171 12.008C7.99014 11.8717 7.92102 11.6915 7.92431 11.5053C7.92759 11.3191 8.00302 11.1415 8.13471 11.0098C8.2664 10.8781 8.44406 10.8027 8.63027 10.7994C8.81647 10.7961 8.99668 10.8652 9.13293 10.9922L10.6088 12.468L13.9438 9.96675C14.0963 9.85238 14.288 9.80327 14.4767 9.83022C14.6654 9.85718 14.8356 9.958 14.95 10.1105C15.0644 10.263 15.1135 10.4547 15.0865 10.6434C15.0596 10.8321 14.9588 11.0024 14.8063 11.1168L10.9729 13.9918C10.8485 14.085 10.6972 14.1354 10.5417 14.1355Z" fill="#151515"/>
</svg>
