<svg width="40" height="37" viewBox="0 0 40 37" fill="none" xmlns="http://www.w3.org/2000/svg">
<g clip-path="url(#clip0_2003_1526)">
<path d="M21.6579 18.5006L39.6563 1.85205C39.7652 1.75136 39.8515 1.63182 39.9104 1.50026C39.9694 1.36871 39.9997 1.2277 39.9997 1.08531C39.9997 0.942912 39.9694 0.80191 39.9104 0.670353C39.8515 0.538795 39.7652 0.41926 39.6563 0.31857C39.5475 0.21788 39.4182 0.138009 39.276 0.0835164C39.1338 0.0290236 38.9814 0.000976562 38.8274 0.000976562C38.6735 0.000976563 38.521 0.0290236 38.3788 0.0835164C38.2366 0.138009 38.1074 0.21788 37.9985 0.31857L20.0001 16.9671L2.00164 0.31857C1.89279 0.21788 1.76356 0.138009 1.62134 0.0835164C1.47912 0.0290236 1.32668 0.000976563 1.17274 0.000976562C0.861839 0.000976563 0.563672 0.115218 0.343832 0.31857C0.123993 0.521922 0.000488281 0.797726 0.000488281 1.08531C0.000488281 1.37289 0.123993 1.6487 0.343832 1.85205L18.3423 18.5006L0.343832 35.1492C0.234979 35.2499 0.148632 35.3694 0.0897205 35.5009C0.0308094 35.6325 0.000488281 35.7735 0.000488281 35.9159C0.000488281 36.0583 0.0308094 36.1993 0.0897205 36.3309C0.148632 36.4624 0.234979 36.5819 0.343832 36.6826C0.452686 36.7833 0.581914 36.8632 0.724138 36.9177C0.866362 36.9722 1.0188 37.0002 1.17274 37.0002C1.32668 37.0002 1.47912 36.9722 1.62134 36.9177C1.76356 36.8632 1.89279 36.7833 2.00164 36.6826L20.0001 20.0341L37.9985 36.6826C38.1074 36.7833 38.2366 36.8632 38.3788 36.9177C38.521 36.9722 38.6735 37.0002 38.8274 37.0002C38.9814 37.0002 39.1338 36.9722 39.276 36.9177C39.4182 36.8632 39.5475 36.7833 39.6563 36.6826C39.7652 36.5819 39.8515 36.4624 39.9104 36.3309C39.9694 36.1993 39.9997 36.0583 39.9997 35.9159C39.9997 35.7735 39.9694 35.6325 39.9104 35.5009C39.8515 35.3694 39.7652 35.2499 39.6563 35.1492L21.6579 18.5006Z" fill="#FF0000"/>
</g>
<defs>
<clipPath id="clip0_2003_1526">
<rect width="40" height="37" fill="white"/>
</clipPath>
</defs>
</svg>
