<svg width="122" height="24" viewBox="0 0 122 24" fill="none" xmlns="http://www.w3.org/2000/svg">
<path d="M11.6191 0.357178L14.2277 8.38575H22.6694L15.8399 13.3477L18.4486 21.3762L11.6191 16.4143L4.78954 21.3762L7.39818 13.3477L0.568677 8.38575H9.01041L11.6191 0.357178Z" fill="#F1AF61"/>
<path d="M36.3094 0.357178L38.918 8.38575H47.3597L40.5302 13.3477L43.1389 21.3762L36.3094 16.4143L29.4799 21.3762L32.0885 13.3477L25.259 8.38575H33.7007L36.3094 0.357178Z" fill="#F1AF61"/>
<path d="M61 0.357178L63.6087 8.38575H72.0504L65.2209 13.3477L67.8295 21.3762L61 16.4143L54.1705 21.3762L56.7792 13.3477L49.9497 8.38575H58.3914L61 0.357178Z" fill="#F1AF61"/>
<path d="M85.6905 0.357178L88.2991 8.38575H96.7408L89.9113 13.3477L92.52 21.3762L85.6905 16.4143L78.861 21.3762L81.4696 13.3477L74.6401 8.38575H83.0818L85.6905 0.357178Z" fill="#F1AF61"/>
<path d="M110.381 0.357178L112.99 8.38575H121.431L114.602 13.3477L117.21 21.3762L110.381 16.4143L103.551 21.3762L106.16 13.3477L99.3305 8.38575H107.772L110.381 0.357178Z" fill="#F1AF61"/>
</svg>
