<svg width="34" height="33" viewBox="0 0 34 33" fill="none" xmlns="http://www.w3.org/2000/svg">
<g clip-path="url(#clip0_2003_559)">
<path d="M16.6663 32.4498C25.4753 32.4498 32.6163 25.3087 32.6163 16.4998C32.6163 7.69086 25.4753 0.549805 16.6663 0.549805C7.85737 0.549805 0.716309 7.69086 0.716309 16.4998C0.716309 25.3087 7.85737 32.4498 16.6663 32.4498Z" fill="#F7F7F6"/>
<path d="M13.5103 23.1382L9.7703 19.4851C9.6894 19.4065 9.62509 19.3124 9.58118 19.2085C9.53727 19.1046 9.51465 18.9929 9.51465 18.8801C9.51465 18.7673 9.53727 18.6556 9.58118 18.5517C9.62509 18.4478 9.6894 18.3538 9.7703 18.2751L11.0105 17.0651C11.1769 16.904 11.3994 16.8139 11.6309 16.8139C11.8625 16.8139 12.085 16.904 12.2513 17.0651L14.4777 19.2415L20.7219 9.74848C20.8507 9.55692 21.049 9.42297 21.2748 9.37494C21.5006 9.3269 21.7362 9.36855 21.9319 9.49108L23.4081 10.4184C23.5045 10.4777 23.588 10.5557 23.6537 10.6479C23.7194 10.7401 23.7659 10.8445 23.7905 10.955C23.8151 11.0655 23.8172 11.1798 23.7968 11.2911C23.7763 11.4024 23.7338 11.5085 23.6715 11.6031L16.2779 22.8473C16.1297 23.0674 15.9351 23.2523 15.7078 23.3891C15.4804 23.5258 15.2259 23.6111 14.962 23.6388C14.6982 23.6665 14.4314 23.6361 14.1806 23.5496C13.9298 23.4631 13.701 23.3227 13.5103 23.1382Z" fill="#001598"/>
</g>
<defs>
<clipPath id="clip0_2003_559">
<rect width="33" height="33" fill="white" transform="translate(0.16626)"/>
</clipPath>
</defs>
</svg>
