<svg width="135" height="64" viewBox="0 0 135 64" fill="none" xmlns="http://www.w3.org/2000/svg">
<path d="M13.2249 22.3497H11.3501L10.1479 18.7413H3.26033L2.05807 22.3497H0.18335L5.64448 6.08756H7.74335L13.2249 22.3497ZM9.63844 16.9371L6.7041 7.89175L3.74939 16.9371H9.63844ZM13.9082 20.0578L14.9067 18.5218C15.8033 19.7165 17.2704 20.838 19.1859 20.838C21.6108 20.838 22.3852 19.2777 22.3852 18.0342C22.3852 16.0838 20.7346 15.5474 18.9414 14.9622C16.761 14.2796 14.3361 13.5481 14.3361 10.3542C14.3361 7.67232 16.3331 5.84375 19.0025 5.84375C21.081 5.84375 22.6908 6.6727 23.832 8.11118L22.8131 9.59842C21.7942 8.25746 20.3678 7.64794 18.8803 7.64794C17.2501 7.64794 16.0886 8.69632 16.0886 10.2323C16.0886 11.8658 17.6576 12.3535 19.3897 12.9142C21.6108 13.6213 24.1376 14.4502 24.1376 17.8636C24.1376 20.2285 22.7927 22.6422 19.1247 22.6422C16.761 22.6422 15.0289 21.5695 13.9082 20.0578ZM31.5972 22.3497H29.9059V7.89175H25.6063V6.08756H35.9173V7.89175H31.5972V22.3497ZM48.0278 22.3497H46.0308L42.5666 15.8887H39.8564V22.3497H38.1651V6.08756H43.6263C46.1123 6.08756 47.8851 7.98927 47.8851 10.9881C47.8851 13.9138 46.2142 15.523 44.3598 15.718L48.0278 22.3497ZM46.1327 10.9881C46.1327 9.15956 45.0323 7.89175 43.4225 7.89175H39.8564V14.1089H43.4225C45.0323 14.1089 46.1327 12.8167 46.1327 10.9881ZM52.254 22.3497H50.5627V6.08756H52.254V22.3497ZM60.0842 22.3497H55.4382V6.08756H60.0842C64.3023 6.08756 67.0533 9.6228 67.0533 14.2308C67.0533 18.8632 64.3023 22.3497 60.0842 22.3497ZM57.1295 7.89175V20.5455H60.0842C63.3853 20.5455 65.3008 17.7173 65.3008 14.2308C65.3008 10.7199 63.4465 7.89175 60.0842 7.89175H57.1295Z" fill="#CDD3F8"/>
<path d="M18.3888 36.0245C18.3888 42.8979 13.8854 52.3272 7.50559 52.3272C3.55068 52.3272 0.865967 47.8716 0.865967 43.416C0.865967 36.5426 5.36936 27.1133 11.7492 27.1133C15.7041 27.1133 18.3888 31.5689 18.3888 36.0245ZM15.6463 34.8502C15.6463 31.8798 14.636 28.4258 11.6048 28.4258C6.322 28.4258 3.60842 39.4785 3.60842 44.5904C3.60842 47.5608 4.6188 51.0147 7.64993 51.0147C12.9328 51.0147 15.6463 39.962 15.6463 34.8502ZM27.5108 28.9784L25.2014 38.615C25.9231 38.7532 26.7314 38.8222 27.4819 38.8222C31.0327 38.8222 33.8617 37.9587 33.8617 33.0196C33.8617 30.0492 32.2451 28.8748 29.445 28.8748C28.9542 28.8748 28.2325 28.9784 27.5108 28.9784ZM30.4265 39.893L32.707 50.5312L34.2659 50.7039L33.9484 51.8092H30.3399L27.8284 40.0657H24.8261L22.3146 50.5312L23.9601 50.7039L23.6714 51.8092H17.8401L18.1576 50.7039L19.6876 50.5312L24.9993 28.9093L23.2672 28.7366L23.5559 27.6314H30.3687C34.3814 27.6314 36.6042 29.8074 36.6042 33.4686C36.6042 37.6479 33.4287 39.6857 30.4265 39.893ZM48.9114 42.1726H54.8582L54.5407 43.2779L53.0107 43.4505L52.0003 47.6989C51.7405 48.8387 51.3364 50.393 51.3364 51.2565C49.2579 51.2565 47.2371 52.3272 45.1009 52.3272C40.482 52.3272 37.8839 47.9407 37.8839 42.7598C37.8839 36.0245 42.7914 27.1133 48.9114 27.1133C49.6909 27.1133 50.4126 27.3205 51.0477 27.5278C51.7116 27.7695 52.3467 27.9768 52.9241 27.9768C53.7324 27.9768 54.3964 27.7695 55.1181 27.3551L55.2913 34.6084H54.3964C53.6747 31.3617 52.4911 28.4258 49.3445 28.4258C43.773 28.4258 40.8284 38.0969 40.8284 43.4851C40.8284 47.5262 42.8492 51.0147 46.4288 51.0147C48.1031 51.0147 48.7382 50.1167 48.9114 49.4259L50.3548 43.4505L48.5939 43.2779L48.9114 42.1726ZM60.0253 42.6216H66.1742L65.5391 31.258H65.4814L60.0253 42.6216ZM58.8418 51.8092H53.3857L53.5878 50.7039C55.0023 50.2894 55.6952 49.3914 56.821 47.0772L65.2504 29.6692L65.0484 27.4587L67.964 27.1133L69.1765 50.5312L70.7931 50.7039L70.6487 51.8092H64.702L64.8463 50.7039L66.5784 50.5312L66.2608 44.0032H59.5057L57.8314 47.2845C57.5138 47.9752 57.254 48.666 57.254 49.1496C57.254 50.2894 58.1489 50.7039 58.9572 50.7039L58.8418 51.8092ZM75.5466 28.7366L75.8353 27.6314H80.1366L85.8812 46.6973H85.9389L88.8834 34.5048C89.2876 32.7778 89.6629 31.0853 89.6629 30.6709C89.6629 29.4965 89.0566 29.013 87.6132 28.7366L87.9019 27.6314H93.6466L93.3579 28.7366C91.6547 29.0475 91.1351 29.6347 90.6444 31.638L85.6502 51.8092H84.9863L78.6066 31.258H78.5489L74.6517 47.4572C74.5362 47.9062 74.3919 48.5279 74.3919 48.9424C74.3919 50.3585 75.7198 50.6348 76.7879 50.7039L76.4704 51.8092H70.0906L70.3792 50.7039C71.7938 50.393 72.6021 50.1512 73.1217 48.4588L76.9611 33.0886C77.3076 31.6725 77.5674 30.4636 77.5674 30.1528C77.5674 29.082 76.9323 28.5985 75.5466 28.7366ZM97.1108 51.8092H90.0093L90.298 50.7039L92.2321 50.5312L97.4283 28.9093L95.3498 28.7366L95.6674 27.6314H102.711L102.422 28.7366L100.286 28.9093L95.1189 50.5312L97.3995 50.7039L97.1108 51.8092ZM118.415 27.3551L118.502 34.712H117.665C116.683 31.4998 115.702 28.4258 112.44 28.4258C107.186 28.4258 104.819 38.4078 104.819 43.6578C104.819 48.4933 107.359 50.4621 109.899 50.4621C112.44 50.4621 114.489 47.9062 116.048 44.9012L116.972 45.5229C115.124 49.3568 112.555 52.3272 108.658 52.3272C104.328 52.3272 101.874 48.2516 101.874 43.3124C101.874 36.5426 106.32 27.1133 112.324 27.1133C113.19 27.1133 113.825 27.3205 114.432 27.5278C115.038 27.7695 115.586 27.9768 116.192 27.9768C116.77 27.9768 117.694 27.7005 118.415 27.3551ZM118.598 51.8092L118.482 44.0032H119.348C119.724 47.8371 121.773 51.0147 125.209 51.0147C128.297 51.0147 129.654 48.2861 129.654 45.8683C129.654 39.962 121.831 40.3765 121.831 34.1939C121.831 30.1873 124.602 27.1133 127.893 27.1133C130.116 27.1133 130.924 28.3567 132.137 28.3567C132.887 28.3567 133.465 27.9077 133.927 27.3551L134.013 34.712H133.176C132.541 31.7071 131.184 28.4258 127.893 28.4258C125.584 28.4258 124.227 30.2909 124.227 32.5015C124.227 38.3732 132.252 36.8535 132.252 45.0048C132.252 47.6989 130.087 52.3272 125.382 52.3272C122.697 52.3272 121.283 50.9111 120.33 50.9111C119.81 50.9111 119.002 51.2565 118.598 51.8092Z" fill="#CDD3F8"/>
<path d="M77.7238 22.3487C81.4752 22.3487 84.5163 18.7101 84.5163 14.2217C84.5163 9.7333 81.4752 6.09473 77.7238 6.09473C73.9725 6.09473 70.9314 9.7333 70.9314 14.2217C70.9314 18.7101 73.9725 22.3487 77.7238 22.3487Z" fill="#59E6FF"/>
</svg>
