
<svg class="sls-sub-icon" xmlns="http://www.w3.org/2000/svg" viewBox="0 0 735.67 735.7" fill="#4d4d4d"><path d="M835.31,378.69c0,29.32-.3,58.65.12,88,.23,15.77-3.66,19.57-17,24.46-28.91,10.58-58,20.77-86.91,31.24q-41.58,15-83.06,30.33a21.81,21.81,0,0,1-15.8.07q-54.92-20.09-109.89-40c-21.7-7.88-43.42-15.7-65.11-23.61-7.94-2.9-12-8.88-12-17.42,0-60.48.18-121-.13-181.44-.08-15.77,3.67-19.57,17-24.46,28.91-10.58,58-20.77,86.91-31.24q41.58-15,83.06-30.33a21.81,21.81,0,0,1,15.8-.07q54.92,20.08,109.89,39.95c21.7,7.88,43.42,15.7,65.11,23.61,7.94,2.89,12,8.88,12,17.42ZM477.58,306.43V462.31l146.86,53.27V359.7Zm179.08,53.24V515.55l146.79-53.27V306.41ZM508.28,283.41l44.64,16.31q39.44,14.4,78.88,28.83c5.5,2,10.58,2.58,16.48.31,23.21-9,46.62-17.4,70-25.89,18-6.53,36.06-12.85,54.43-19.38l-44.64-16.31q-39.44-14.4-78.87-28.83c-5.51-2-10.59-2.58-16.49-.31-23.21,9-46.62,17.4-70,25.89C544.72,270.56,526.65,276.88,508.28,283.41Z" transform="translate(-272.69 -9.55)"/><path d="M929.83,606.69c18,0,35.46,0,52.95,0,10.33,0,17.33,7.19,17.34,17.68s-6.94,17.91-17.1,17.92q-50.74,0-101.49,0a16.44,16.44,0,0,1-16.83-16.57q0-51,0-102c0-10,7.51-16.88,18.15-16.86C893,506.9,900.28,514,900.3,524c0,19.16,0,38.32.94,58.1,2.74-3.72,5.52-7.41,8.21-11.17a333.52,333.52,0,0,0,46.64-93.12c2.92-9.14,5.9-18.32,7.8-27.7,2.48-12.29,4.13-24.76,5.75-37.2,1.31-10,2.51-20.05,2.87-30.12a184.88,184.88,0,0,0-1-27.84c-1.77-15.09-3.46-30.3-6.93-45a528.57,528.57,0,0,0-15.47-51.72c-4.06-11.7-8.82-23.42-15.11-34-10.9-18.41-22.31-36.66-35.18-53.71a280.62,280.62,0,0,0-57.56-56.47c-30.93-22.82-64.47-40.82-101.41-52-11.23-3.4-22.52-7-34.05-8.87-18.07-3-36.37-4.63-54.58-6.76s-35.94.86-53.87,2.82c-34.64,3.8-67.22,14.36-98.61,28.94-11.11,5.16-21.53,11.8-32.73,16.7-9.64,4.22-19.19,1.58-24.43-7.93-4.55-8.24-1.25-18.81,6.77-24C472,47.39,498,36.91,524.53,27.66c20.2-7.06,41-11.36,62.28-14.2,21.62-2.89,43.3-4.76,65-3.53,19.43,1.1,38.74,4.26,58.11,6.5,25.29,2.93,48.76,12.16,72.15,21.4,15.56,6.15,30.9,12.9,44.8,22.54s28.54,17.78,41.64,28.15a369.67,369.67,0,0,1,80,87.16,383,383,0,0,1,41.46,84.73,303.71,303.71,0,0,1,14.57,63.22c2.54,20.79,4.48,41.59,3.67,62.5-.56,14.53-1.94,29.08-3.9,43.49s-4.2,29.17-7.95,43.33a349.09,349.09,0,0,1-23.48,63.25c-11.83,24.33-25.66,47.31-42.46,68.49C930.1,605,930.11,605.61,929.83,606.69Z" transform="translate(-272.69 -9.55)"/><path d="M348.34,152.31c-18,0-35,0-52,0-10.58,0-17.46-7.18-17.45-18.07,0-10.41,7.08-17.53,17.5-17.53q50.49,0,101,0c9.78,0,16.92,7.17,16.92,17q0,50.51,0,101c0,10.32-7.25,17.52-17.58,17.59-10.66.07-18-7.1-18-17.66q0-27.24,0-54.5v-4.77l-1.47-.59c-5,7.52-10.66,14.71-15,22.62-10.66,19.69-21.75,39.26-30.65,59.74-6.42,14.77-10.15,30.8-14.09,46.51-4.53,18.13-8.35,36.45-8.3,55.35,0,9.29-1.34,18.63-.75,27.86.91,14.17,2.45,28.33,4.66,42.35A347,347,0,0,0,321.47,469c8.13,29,20.55,56.17,36.27,82,10,16.47,21.65,31.5,34,46.06,12.85,15.12,27.67,28.2,43,40.85,19.29,15.92,40.85,28,63,39.07,23.08,11.58,47.58,19.29,72.79,24.62,12.92,2.73,25.94,5.7,39.05,6.69,15.83,1.2,31.82.68,47.72.4,9.09-.15,18.35-.38,27.21-2.18,18.6-3.78,37.12-8.15,55.43-13.2a242,242,0,0,0,32.56-12c12.29-5.37,24.14-11.77,36.22-17.65,9.46-4.6,19.84-1.52,24.61,7.21,4.66,8.52,1.49,20.24-7.36,25.23-23.17,13-46.71,25.41-72.65,32.1-20.48,5.29-41.12,9.95-61.73,14.75a53.29,53.29,0,0,1-10.84,1.24c-21.29.44-42.6,1.33-63.87.92-28.13-.55-55.51-6.64-82.47-14.18-30.18-8.44-58.19-22.11-85.19-37.92-22.54-13.2-42.44-29.72-61.62-47.33a354.47,354.47,0,0,1-54.93-64.44c-17-25.44-31.62-52.52-40.58-81.87C285,476.05,278.54,452.14,275.39,428c-3.18-24.42-2.88-49.44-2.41-74.16.63-32.66,8.07-64.38,18.49-95.16a337,337,0,0,1,22-50.51c9.59-18,21.31-34.77,32.12-52.07C346.23,155,347.06,154,348.34,152.31Z" transform="translate(-272.69 -9.55)"/></svg>